<svg xmlns="http://www.w3.org/2000/svg" width="32" height="32" viewBox="0 0 32 32">
  <defs>
    <style>
      .cls-1, .cls-2, .cls-3 {
        fill: #364fc7;
      }

      .cls-1 {
        opacity: 0;
      }

      .cls-2 {
        opacity: 0.45;
      }
    </style>
  </defs>
  <g id="_02_Product_VPC_L" data-name="02_Product_VPC_L" transform="translate(0 0)">
    <rect id="_Ignore" class="cls-1" width="32" height="32"/>
    <g id="그룹_114626" data-name="그룹 114626" transform="translate(0)">
      <path id="빼기_58" data-name="빼기 58" class="cls-2" d="M12.667,24H12A12,12,0,0,1,3.515,3.515,12,12,0,0,1,23.326,8.028C23.548,8.009,23.774,8,24,8a8,8,0,0,1,7.007,11.863,2.32,2.32,0,0,0-1.674-1.172V17.333a7.333,7.333,0,1,0-14.667,0v1.358a2.419,2.419,0,0,0-2,2.419V24Z" transform="translate(0 0)"/>
      <path id="패스_206315" data-name="패스 206315" class="cls-3" d="M2,0H14a2,2,0,0,1,2,2v8a2,2,0,0,1-2,2H2a2,2,0,0,1-2-2V2A2,2,0,0,1,2,0Z" transform="translate(14 20)"/>
      <path id="빼기_14" data-name="빼기 14" class="cls-3" d="M3,10H0V6A6,6,0,0,1,12,6v4H9V6A3,3,0,0,0,3,6v4Z" transform="translate(16 11.333)"/>
    </g>
  </g>
</svg>
